<svg width="1008" height="6082" viewBox="0 0 1008 6082" fill="none" xmlns="http://www.w3.org/2000/svg">
<g clip-path="url(#clip0_1_493)">
<mask id="mask0_1_493" style="mask-type:luminance" maskUnits="userSpaceOnUse" x="0" y="0" width="1008" height="6082">
<path d="M1008 0H0V6081.1H1008V0Z" fill="white"/>
</mask>
<g mask="url(#mask0_1_493)">
<path d="M483 1052.6H463.2V1064.1H483V1052.6Z" fill="white" stroke="black" stroke-width="0.4" stroke-miterlimit="10"/>
<path d="M483 1383.8H463.2V1395.3H483V1383.8Z" fill="white" stroke="black" stroke-width="0.4" stroke-miterlimit="10"/>
<path d="M483 1787H463.2V1798.5H483V1787Z" fill="url(#paint0_linear_1_493)" stroke="black" stroke-width="0.4" stroke-miterlimit="10"/>
<path d="M483 1772.6H463.2V1784.1H483V1772.6Z" fill="url(#paint1_linear_1_493)" stroke="black" stroke-width="0.4" stroke-miterlimit="10"/>
<path d="M483.1 1758.2H463.3V1769.7H483.1V1758.2Z" fill="#FFD070" stroke="black" stroke-width="0.4" stroke-miterlimit="10"/>
<path d="M483 1859H463.2V1870.5H483V1859Z" fill="white" stroke="black" stroke-width="0.4" stroke-miterlimit="10"/>
<path d="M483 2363H463.2V2374.5H483V2363Z" fill="white" stroke="black" stroke-width="0.4" stroke-miterlimit="10"/>
<path d="M483 2406.2H463.2V2417.7H483V2406.2Z" fill="url(#paint2_linear_1_493)" stroke="black" stroke-width="0.4" stroke-miterlimit="10"/>
<path d="M483 2809.4H463.2V2820.9H483V2809.4Z" fill="white" stroke="black" stroke-width="0.4" stroke-miterlimit="10"/>
<path d="M483 2982.2H463.2V2993.7H483V2982.2Z" fill="url(#paint3_linear_1_493)" stroke="black" stroke-width="0.4" stroke-miterlimit="10"/>
<path d="M483 3299H463.2V3310.5H483V3299Z" fill="#E76355" stroke="black" stroke-width="0.4" stroke-miterlimit="10"/>
<path d="M483 3414.2H463.2V3425.7H483V3414.2Z" fill="white" stroke="black" stroke-width="0.4" stroke-miterlimit="10"/>
<path d="M483 4091H463.2V4102.5H483V4091Z" fill="#E76355" stroke="black" stroke-width="0.4" stroke-miterlimit="10"/>
<path d="M483 4019H463.2V4030.5H483V4019Z" fill="#E76355" stroke="black" stroke-width="0.4" stroke-miterlimit="10"/>
<path d="M483 4004.6H463.2V4016.1H483V4004.6Z" fill="#E76355" stroke="black" stroke-width="0.4" stroke-miterlimit="10"/>
<path d="M483 3975.8H463.2V3987.3H483V3975.8Z" fill="#E76355" stroke="black" stroke-width="0.4" stroke-miterlimit="10"/>
<path d="M483 3961.4H463.2V3972.9H483V3961.4Z" fill="#E76355" stroke="black" stroke-width="0.4" stroke-miterlimit="10"/>
<path d="M483 4076.6H463.2V4088.1H483V4076.6Z" fill="#E76355" stroke="black" stroke-width="0.4" stroke-miterlimit="10"/>
<path d="M483 4047.8H463.2V4059.3H483V4047.8Z" fill="white" stroke="black" stroke-width="0.4" stroke-miterlimit="10"/>
<path d="M483 4033.4H463.2V4044.9H483V4033.4Z" fill="#E76355" stroke="black" stroke-width="0.4" stroke-miterlimit="10"/>
<path d="M483 4134.2H463.2V4145.7H483V4134.2Z" fill="url(#paint4_linear_1_493)" stroke="black" stroke-width="0.4" stroke-miterlimit="10"/>
<path d="M482.8 4206.2H463V4217.7H482.8V4206.2Z" fill="url(#paint5_linear_1_493)" stroke="black" stroke-width="0.4" stroke-miterlimit="10"/>
<path d="M483 4220.6H463.2V4232.1H483V4220.6Z" fill="#EF8E49" stroke="black" stroke-width="0.4" stroke-miterlimit="10"/>
<path d="M483 4321.4H463.2V4332.9H483V4321.4Z" fill="url(#paint6_linear_1_493)" stroke="black" stroke-width="0.4" stroke-miterlimit="10"/>
<path d="M483 4364.6H463.2V4376.1H483V4364.6Z" fill="url(#paint7_linear_1_493)" stroke="black" stroke-width="0.4" stroke-miterlimit="10"/>
<path d="M483 4350.2H463.2V4361.7H483V4350.2Z" fill="#EF8E49" stroke="black" stroke-width="0.4" stroke-miterlimit="10"/>
<path d="M483 4436.6H463.2V4448.1H483V4436.6Z" fill="#EF8E49" stroke="black" stroke-width="0.4" stroke-miterlimit="10"/>
<path d="M483 4494.2H463.2V4505.7H483V4494.2Z" fill="#EF8E49" stroke="black" stroke-width="0.4" stroke-miterlimit="10"/>
<path d="M483 4479.8H463.2V4491.3H483V4479.8Z" fill="#EF8E49" stroke="black" stroke-width="0.4" stroke-miterlimit="10"/>
<path d="M483 4465.4H463.2V4476.9H483V4465.4Z" fill="#EF8E49" stroke="black" stroke-width="0.4" stroke-miterlimit="10"/>
<path d="M483 4451H463.2V4462.5H483V4451Z" fill="#EF8E49" stroke="black" stroke-width="0.4" stroke-miterlimit="10"/>
<path d="M483 4638.2H463.2V4649.7H483V4638.2Z" fill="white" stroke="black" stroke-width="0.4" stroke-miterlimit="10"/>
<path d="M483 4623.8H463.2V4635.3H483V4623.8Z" fill="url(#paint8_linear_1_493)" stroke="black" stroke-width="0.4" stroke-miterlimit="10"/>
<path d="M483 4609.4H463.2V4620.9H483V4609.4Z" fill="#E76355" stroke="black" stroke-width="0.4" stroke-miterlimit="10"/>
<path d="M483 4595H463.2V4606.5H483V4595Z" fill="url(#paint9_linear_1_493)" stroke="black" stroke-width="0.4" stroke-miterlimit="10"/>
<path d="M483 4695.8H463.2V4707.3H483V4695.8Z" fill="white" stroke="black" stroke-width="0.4" stroke-miterlimit="10"/>
<path d="M483 4681.4H463.2V4692.9H483V4681.4Z" fill="white" stroke="black" stroke-width="0.4" stroke-miterlimit="10"/>
<path d="M483 4667H463.2V4678.5H483V4667Z" fill="white" stroke="black" stroke-width="0.4" stroke-miterlimit="10"/>
<path d="M483 4753.4H463.2V4764.9H483V4753.4Z" fill="#E76355" stroke="black" stroke-width="0.4" stroke-miterlimit="10"/>
<path d="M483 4796.6H463.2V4808.1H483V4796.6Z" fill="white" stroke="black" stroke-width="0.4" stroke-miterlimit="10"/>
<path d="M483 4839.8H463.2V4851.3H483V4839.8Z" fill="white" stroke="black" stroke-width="0.4" stroke-miterlimit="10"/>
<path d="M483 4811H463.2V4822.5H483V4811Z" fill="url(#paint10_linear_1_493)" stroke="black" stroke-width="0.4" stroke-miterlimit="10"/>
<path d="M483 5099H463.2V5110.5H483V5099Z" fill="white" stroke="black" stroke-width="0.4" stroke-miterlimit="10"/>
<path d="M482.8 2982.4L472.9 2988.1L463.4 2982.4H482.8Z" fill="#EF8E49"/>
<path d="M483.1 4177.4H463.3V4188.9H483.1V4177.4Z" fill="url(#paint11_linear_1_493)" stroke="black" stroke-width="0.4" stroke-miterlimit="10"/>
<path d="M482.9 4177.6L473 4183.3L463.4 4177.6H482.9Z" fill="#EF8E49"/>
</g>
<path d="M483 3989.9H463.2V4001.4H483V3989.9Z" fill="#E76355" stroke="black" stroke-width="0.4" stroke-miterlimit="10"/>
<path d="M483 4062.3H463.2V4073.8H483V4062.3Z" fill="#E76355" stroke="black" stroke-width="0.4" stroke-miterlimit="10"/>
<path d="M483.9 2924.6H464.1V2936.1H483.9V2924.6Z" fill="white" stroke="black" stroke-width="0.4" stroke-miterlimit="10"/>
<path d="M483.1 1614.1H463.3V1625.6H483.1V1614.1Z" fill="white" stroke="black" stroke-width="0.4" stroke-miterlimit="10"/>
<path d="M483 3759.8H463.2V3771.3H483V3759.8Z" fill="white" stroke="black" stroke-width="0.4" stroke-miterlimit="10"/>
</g>
<defs>
<linearGradient id="paint0_linear_1_493" x1="478.1" y1="1801.4" x2="468.2" y2="1784.2" gradientUnits="userSpaceOnUse">
<stop offset="0.5" stop-color="white"/>
<stop offset="0.5" stop-color="#FFD070"/>
<stop offset="1" stop-color="#FFD070"/>
</linearGradient>
<linearGradient id="paint1_linear_1_493" x1="478.1" y1="1787" x2="468.2" y2="1769.8" gradientUnits="userSpaceOnUse">
<stop offset="0.5" stop-color="white"/>
<stop offset="0.5" stop-color="#FFD070"/>
<stop offset="1" stop-color="#FFD070"/>
</linearGradient>
<linearGradient id="paint2_linear_1_493" x1="478.1" y1="2420.6" x2="468.2" y2="2403.4" gradientUnits="userSpaceOnUse">
<stop offset="0.5" stop-color="white"/>
<stop offset="0.5" stop-color="#EF8E49"/>
<stop offset="1" stop-color="#EF8E49"/>
</linearGradient>
<linearGradient id="paint3_linear_1_493" x1="478.1" y1="2996.6" x2="468.2" y2="2979.4" gradientUnits="userSpaceOnUse">
<stop stop-color="white"/>
<stop offset="0.5" stop-color="white"/>
<stop offset="0.5" stop-color="#EF8E49"/>
<stop offset="0.5" stop-color="#E76255"/>
</linearGradient>
<linearGradient id="paint4_linear_1_493" x1="470.243" y1="4134.95" x2="475.999" y2="4144.95" gradientUnits="userSpaceOnUse">
<stop stop-color="#E76255"/>
<stop offset="0.5" stop-color="#E76355"/>
<stop offset="0.5" stop-color="white"/>
<stop offset="1" stop-color="white"/>
</linearGradient>
<linearGradient id="paint5_linear_1_493" x1="470.043" y1="4206.95" x2="475.799" y2="4216.95" gradientUnits="userSpaceOnUse">
<stop stop-color="#E76255"/>
<stop offset="0.5" stop-color="#E76355"/>
<stop offset="0.5" stop-color="white"/>
<stop offset="1" stop-color="white"/>
</linearGradient>
<linearGradient id="paint6_linear_1_493" x1="478.1" y1="4335.8" x2="468.2" y2="4318.6" gradientUnits="userSpaceOnUse">
<stop stop-color="#FFD070"/>
<stop offset="0.5" stop-color="#FFD070"/>
<stop offset="0.5" stop-color="#E76255"/>
<stop offset="1" stop-color="#E76255"/>
</linearGradient>
<linearGradient id="paint7_linear_1_493" x1="478.1" y1="4379" x2="468.2" y2="4361.8" gradientUnits="userSpaceOnUse">
<stop offset="0.5" stop-color="white"/>
<stop offset="0.5" stop-color="#EF8E49"/>
<stop offset="1" stop-color="#EF8E49"/>
</linearGradient>
<linearGradient id="paint8_linear_1_493" x1="478.1" y1="4638.2" x2="468.2" y2="4621" gradientUnits="userSpaceOnUse">
<stop offset="0.5" stop-color="white"/>
<stop offset="0.5" stop-color="#E76255"/>
<stop offset="1" stop-color="#E76255"/>
</linearGradient>
<linearGradient id="paint9_linear_1_493" x1="478.1" y1="4609.4" x2="468.2" y2="4592.2" gradientUnits="userSpaceOnUse">
<stop offset="0.5" stop-color="white"/>
<stop offset="0.5" stop-color="#FFD070"/>
<stop offset="1" stop-color="#FFD070"/>
</linearGradient>
<linearGradient id="paint10_linear_1_493" x1="478.1" y1="4825.4" x2="468.2" y2="4808.2" gradientUnits="userSpaceOnUse">
<stop offset="0.5" stop-color="white"/>
<stop offset="0.5" stop-color="#EF8E49"/>
<stop offset="1" stop-color="#EF8E49"/>
</linearGradient>
<linearGradient id="paint11_linear_1_493" x1="478.1" y1="4191.8" x2="468.2" y2="4174.6" gradientUnits="userSpaceOnUse">
<stop stop-color="white"/>
<stop offset="0.5" stop-color="white"/>
<stop offset="0.5" stop-color="#E76255"/>
<stop offset="0.5" stop-color="#E76255"/>
</linearGradient>
<clipPath id="clip0_1_493">
<rect width="1008" height="6081.1" fill="white"/>
</clipPath>
</defs>
</svg>
